<svg xmlns="http://www.w3.org/2000/svg" version="1.1" xmlns:xlink="http://www.w3.org/1999/xlink" xmlns:svgjs="http://svgjs.dev/svgjs" viewBox="0 0 15.345544764189416 15.262937307283352"><g transform="matrix(1,0,0,1,4.074163175183777,3.994734359425313)"><rect width="15.345544764189416" height="15.262937307283352" x="-4.074163175183776" y="-3.9947343594253133" fill="#212f44"></rect><g><path d=" M -0.6552906799447217 -0.11155297137324155 L -0.6668643746064435 -0.12260057708114183 L -0.639870107364503 -0.20881142057585944 L -1.0362691495284766 -0.5871919160714442 L -1.1211318900790266 -0.5562191011162281 L -1.1327055847407483 -0.5672667068241284 L -0.9414439109227246 -0.767636295655188 L -0.9298702162610027 -0.7565886899472877 L -0.963769237070381 -0.6631442872889939 L -0.5666468389900498 -0.2840733164366654 L -0.40300417944177674 -0.45550866861342043 L -0.4783976467264792 -0.6256287000347392 L -0.4673500410185789 -0.6372023946964611 L -0.3031482480054001 -0.4804644887156258 L -0.6552906799447217 -0.11155297137324155 Z M -0.20009969273673664 -0.5774149307530497 L -0.21028848542112932 -0.5897514012221291 L -0.1733070853823968 -0.6721733403595653 L -0.5222732348228456 -1.0946974539255325 L -0.6101985982835414 -1.073957867133493 L -0.620387390967934 -1.0862943376025722 L -0.23333063000056986 -1.405967708075392 L -0.12380110864334876 -1.2733506505327894 L -0.13613757911242808 -1.2631618578483967 L -0.2607600368976842 -1.311980327873194 L -0.44195194691228695 -1.162332435321177 L -0.2910304552747206 -0.9795984664979392 L -0.16303957415802253 -1.0853071905985132 L -0.1772082361308936 -1.1825504372426812 L -0.16487176566181427 -1.1927392299270738 L -0.024139066708640633 -1.0223417315729155 L -0.03647553717771995 -1.0121529388885229 L -0.12801559930542275 -1.0429005733610528 L -0.2560064804221208 -0.937191849260479 L -0.09171219838628913 -0.7382662629465747 L 0.11029750554488499 -0.9051077431535046 L 0.0771279065835978 -1.0489123943465288 L 0.08946437705267712 -1.0591011870309215 L 0.20854589155151637 -0.9149186884235567 L -0.20009969273673664 -0.5774149307530497 Z M 1.1751758164587334 -1.3345023157934406 Q 1.1393658477928317 -1.3145361908777955 1.0958223616241989 -1.3022799756266634 Q 1.052278875455566 -1.2900237603755311 0.9889515566534999 -1.2896355679728897 Q 0.9256242378514337 -1.289247375570248 0.8322598707465609 -1.3047423733148933 Q 0.7515036209435242 -1.2688755625039285 0.6690805350506203 -1.275014366287319 Q 0.5866574491577162 -1.2811531700707097 0.5168013769803973 -1.3263569219056757 Q 0.44694530480307826 -1.3715606737406418 0.40165628975051737 -1.4527881636413453 Q 0.3656198691710604 -1.5174207900139485 0.35726253921685414 -1.5837469163597295 Q 0.3489052092626479 -1.6500730427055106 0.3664880114732984 -1.7119709026557637 Q 0.3840708136839489 -1.7738687626060168 0.425367810942583 -1.8260900036619354 Q 0.46666480820121714 -1.878311244717854 0.52955060683402 -1.913373707984353 Q 0.5924364054668229 -1.9484361712508516 0.6585693142058936 -1.9561133049418684 Q 0.7247022229449642 -1.963790438632885 0.7866000828952173 -1.9462076364222343 Q 0.8484979428454704 -1.928624834211584 0.9009626732296288 -1.8868911300179998 Q 0.953427403613787 -1.8451574258244157 0.989463824193244 -1.7805247994518127 Q 1.028422116711576 -1.7106516898598096 1.034603781270438 -1.6379603078170826 Q 1.0407854458293002 -1.5652689257743555 1.0171390182508788 -1.4988453120306087 Q 0.993492590672457 -1.4324216982868618 0.9420931929090373 -1.3808649149353207 Q 1.012918409165001 -1.3688320955526512 1.0622632367692608 -1.3665764385073744 Q 1.1116080643735202 -1.3643207814620977 1.1470976081063422 -1.371513992541728 Q 1.1825871518391642 -1.3787072036213581 1.2114098095458654 -1.39477749928517 Q 1.2297515008137663 -1.405004051071232 1.242508676090969 -1.4149792442496487 Q 1.255265851368172 -1.4249544374280652 1.2629254893111557 -1.433804858128936 L 1.2712041264713012 -1.4189568223406352 Q 1.2578327652112502 -1.3977623254592935 1.2330991543630925 -1.3753849150994708 Q 1.2083655435149347 -1.3530075047396481 1.1751758164587334 -1.3345023157934406 Z M 0.8538154378138847 -1.372862543076911 Q 0.907093683877787 -1.4025682411221392 0.9316874048858561 -1.4529185031569813 Q 0.9562811258939252 -1.5032687651918235 0.9507451244355356 -1.5665882147144834 Q 0.945209122977146 -1.6299076642371437 0.9067378091152932 -1.6989073599592468 Q 0.8595008794368157 -1.7836285053395506 0.7962456830052761 -1.8313676938999708 Q 0.7329904865737366 -1.879106882460391 0.6654735774700684 -1.8872596111500393 Q 0.5979566683664004 -1.8954123398396876 0.5394379390830977 -1.8627847698555846 Q 0.4861596930191953 -1.8330790718103565 0.46044906881298664 -1.7826785380539854 Q 0.434738444606778 -1.732278004297614 0.4398377391302175 -1.6687150654467144 Q 0.4449370336536571 -1.6051521265958146 0.4834083475155099 -1.5361524308737113 Q 0.5306452771939874 -1.4514312854934075 0.5945806698887165 -1.403498879326277 Q 0.6585160625834456 -1.3555664731591466 0.7264696786220638 -1.3476572337977377 Q 0.794423294660682 -1.3397479944363289 0.8538154378138847 -1.372862543076911 Z M 1.6078580313323927 -1.6663781596882417 Q 1.5359365774402156 -1.638877169341793 1.4689594811139384 -1.6432439264566967 Q 1.401982384787661 -1.6476106835716005 1.3483284941374398 -1.6913315026180697 Q 1.2946746034872187 -1.735052321664539 1.2600304987650692 -1.8256546726715672 L 1.1382403986593679 -2.1441639684797797 L 1.0482965365928187 -2.152596149487893 L 1.042582045092258 -2.167540867179774 L 1.291972021575521 -2.2629014440953816 L 1.2976865130760817 -2.2479567264035007 L 1.2363151085123365 -2.1816653189522093 L 1.3541764957114022 -1.8734305165571654 Q 1.383820420370561 -1.795904793530533 1.4254276389809424 -1.7598896667154302 Q 1.4670348575913237 -1.7238745399003275 1.5156331013384823 -1.7199744495562757 Q 1.5642313450856409 -1.716074359212224 1.6156038121514815 -1.7357179237454017 Q 1.6567017858041542 -1.7514327753719439 1.6851210870969766 -1.7821059446576204 Q 1.7135403883897993 -1.812779113943297 1.7197344353144273 -1.8595779791292766 Q 1.7259284822390555 -1.9063768443152564 1.7019990490804573 -1.9689578496500078 L 1.5709229002863447 -2.3117523117075267 L 1.4658145871097423 -2.312244755784809 L 1.4601000956091816 -2.32718947347669 L 1.6926772646890784 -2.416121247454167 L 1.6983917561896393 -2.401176529762286 L 1.636663195907109 -2.335819167166737 L 1.7588104517315952 -2.0163758265027827 Q 1.7934545564537447 -1.9257734754957543 1.7826593520577294 -1.8574089118531167 Q 1.7718641476617139 -1.7890443482104792 1.7258218164431418 -1.7414617491225848 Q 1.6797794852245695 -1.6938791500346901 1.6078580313323927 -1.6663781596882417 Z M 1.999687831377791 -1.8198281916011145 L 1.9961152927832035 -1.835424247768947 L 2.0501564030927066 -1.8816579843312897 L 2.1631253193968942 -2.539490047968399 L 2.216736762473818 -2.5517706493872936 L 2.601197039043292 -2.0109607976462924 L 2.6745437360839124 -1.990829676633505 L 2.6781162746784997 -1.9752336204656724 L 2.4207813479092652 -1.916286733654978 L 2.417208809314678 -1.9318827898228106 L 2.4951721900620956 -1.9856481249601754 L 2.382849371096761 -2.144580765848322 L 2.147933775068786 -2.0907694032673474 L 2.1171911116543223 -1.898039310530938 L 2.2066620510489408 -1.8836535187958787 L 2.2102345896435285 -1.8680574626280464 L 1.999687831377791 -1.8198281916011145 Z M 2.1580725043911504 -2.149516370573991 L 2.349124192447097 -2.1932799683576882 L 2.199786985838149 -2.406313765493815 L 2.1580725043911504 -2.149516370573991 Z M 2.7967001013408925 -1.9842637703920203 L 2.794803038242635 -2.0001509083218436 L 2.8714819623873367 -2.0495912015249704 L 2.8065075512720266 -2.593725675621419 L 2.7203433116360394 -2.6237210720674087 L 2.718446248537782 -2.639608209997232 L 2.9835628627417083 -2.6712654504493996 L 2.9854599258399657 -2.6553783125195762 L 2.909773947815878 -2.606056585760091 L 2.9747483589311883 -2.0619221116636424 L 3.059919652446562 -2.031808148774011 L 3.0618167155448193 -2.015921010844188 L 2.7967001013408925 -1.9842637703920203 Z M 3.45326228374883 -2.0487403809803966 L 3.453839470656379 -2.06472996681849 L 3.517988912890691 -2.0954358141610836 L 3.7970433313557 -2.7017638042251706 L 3.8520075326741456 -2.699779724230471 L 4.083728734458407 -2.078015874651181 L 4.149386454613437 -2.03962233634011 L 4.1488092677058885 -2.0236327505020166 L 3.884981101377349 -2.0331563344765744 L 3.8855582882848982 -2.049145920314668 L 3.9747636067546748 -2.080948611343978 L 3.907305124963419 -2.263500941469941 L 3.6664619882771388 -2.2721948192648975 L 3.58698007599919 -2.093946044737159 L 3.6696988794706384 -2.056937943566579 L 3.6691216925630896 -2.0409483577284857 L 3.45326228374883 -2.0487403809803966 Z M 3.6914310979140974 -2.3263293144037416 L 3.8873035244307403 -2.3192587747862667 L 3.798061188967375 -2.563637181281285 L 3.6914310979140974 -2.3263293144037416 Z M 4.259212500856654 -2.0115554372362583 L 4.262055024767904 -2.0273009146127614 L 4.348872813764576 -2.0522743307533173 L 4.445873942235973 -2.589588746226488 L 4.374608180620489 -2.645133243896058 L 4.377450704531738 -2.660878721272561 L 4.531953201288676 -2.632986455393423 L 4.825183768351305 -2.101436048997069 L 4.8990893900438 -2.510818460786152 L 4.8046565314662315 -2.5674968095700486 L 4.807499055377481 -2.583242286946552 L 5.056474416393438 -2.538294877599915 L 5.053631892482188 -2.522549400223412 L 4.967975853566001 -2.498382418674434 L 4.859604629449604 -1.8980860936952506 L 4.817288659000251 -1.9057253767067344 L 4.49788292003513 -2.483663932191783 L 4.417581619542324 -2.0388541963055684 L 4.512014478119892 -1.9821758475216713 L 4.509171954208642 -1.9664303701451682 L 4.259212500856654 -2.0115554372362583 Z M 5.195485613230434 -1.8108465300684902 L 5.200433397071522 -1.8260622927855503 L 5.308852358825682 -1.8328688140813378 L 5.478623191872984 -2.3549596723104633 L 5.328367535042016 -2.403819037741199 L 5.214152877984802 -2.282176067893768 L 5.198937115267741 -2.2871238517348553 L 5.262639832221739 -2.4830267967170045 L 5.827525023092596 -2.299340321616644 L 5.763822306138598 -2.103437376634495 L 5.7486065434215385 -2.1083851604755823 L 5.72873229153466 -2.2736304754225936 L 5.577525649533875 -2.322799077343397 L 5.407754816486572 -1.8007082191142714 L 5.4923858442051126 -1.7311266903346905 L 5.487438060364026 -1.7159109276176303 L 5.195485613230434 -1.8108465300684902 Z M 5.7432127282467285 -1.6173182963290151 L 5.7496489224371965 -1.6319666888805062 L 5.84081241973976 -1.635602175033082 L 6.061252070763311 -2.1373096199216497 L 6.002269544413091 -2.2069160965265286 L 6.00870573860356 -2.2215644890780197 L 6.253150789306566 -2.1141604985245745 L 6.246714595116098 -2.0995121059730835 L 6.1564666223480025 -2.0954743576836035 L 5.936026971324452 -1.5937669127950358 L 5.994093973140203 -1.5245626983270608 L 5.9876577789497345 -1.5099143057755697 L 5.7432127282467285 -1.6173182963290151 Z M 6.589539112234159 -1.0113842426983475 Q 6.554033926975567 -1.0318874575621946 6.52118162465099 -1.0629836990066939 Q 6.488329322326414 -1.0940799404511934 6.4555198167531325 -1.148246686190963 Q 6.422710311179852 -1.2024134319307327 6.388132407956222 -1.2905120619351618 Q 6.315926783959995 -1.3414468031568023 6.2789277228249265 -1.415354309373177 Q 6.241928661689858 -1.489261815589552 6.244911199919313 -1.57241441305776 Q 6.247893738148769 -1.655567010525968 6.29440103040091 -1.7361031624539933 Q 6.331406832838097 -1.8001856919451102 6.384061197545982 -1.8413744996142938 Q 6.436715562253868 -1.882563307283477 6.498871225804379 -1.8992118354044745 Q 6.56102688935489 -1.9158603635254718 6.627036666731268 -1.907188034500289 Q 6.693046444107646 -1.8985157054751063 6.755397013342247 -1.8625100598605457 Q 6.817747582576847 -1.8265044142459854 6.858253360976244 -1.7736670986796272 Q 6.898759139375642 -1.7208297831132695 6.915407667496639 -1.658674119562758 Q 6.932056195617637 -1.5965184560122467 6.923133827386797 -1.5300756885717397 Q 6.914211459155958 -1.4636329211312327 6.87720565671877 -1.3995503916401155 Q 6.8371993838137035 -1.3302719813794486 6.777964765613616 -1.2876866551896695 Q 6.718730147413529 -1.2451013289998902 6.649579554489767 -1.2313374088354845 Q 6.580428961566004 -1.217573488671079 6.509808784361654 -1.235259374897846 Q 6.53580014303502 -1.1682858780926737 6.559169269727724 -1.1247671014827967 Q 6.582538396420428 -1.0812483248729197 6.606913848320893 -1.0544698382717677 Q 6.6312893002213595 -1.0276913516706156 6.659866644453884 -1.0111887640972756 Q 6.678052227147309 -1.0006871174596954 6.693158105227726 -0.9948508131993279 Q 6.708263983308143 -0.9890145089389603 6.7197900783642375 -0.9869775669275469 L 6.7112887453719114 -0.9722559047471552 Q 6.686236241614468 -0.9728658682569485 6.654341299361222 -0.9826235656626946 Q 6.622446357107975 -0.9923812630684405 6.589539112234159 -1.0113842426983475 Z M 6.457667216780009 -1.3069410108315267 Q 6.510492004603767 -1.276436227741413 6.566329599665678 -1.2811439849252662 Q 6.622167194727588 -1.2858517421091191 6.673687225918479 -1.323076550853956 Q 6.7252072571093695 -1.3603013595987927 6.764713451603123 -1.4287137897312012 Q 6.813221057500517 -1.51271386217226 6.821765378216467 -1.5914999306330162 Q 6.8303096989324175 -1.6702859990937726 6.802683928330743 -1.7324295168463397 Q 6.775058157729068 -1.794573034598907 6.717037489135759 -1.8280782881569007 Q 6.6642127013120005 -1.8585830712470144 6.607759165327488 -1.8548083825386037 Q 6.551305629342977 -1.8510336938301932 6.499352608087957 -1.8140589242910132 Q 6.447399586832938 -1.777084154751833 6.407893392339184 -1.7086717246194245 Q 6.3593857864417895 -1.6246716521783657 6.351024416584312 -1.5452025544478236 Q 6.342663046726834 -1.4657334567172815 6.370721807392638 -1.4033398997590576 Q 6.398780568058442 -1.3409463428008337 6.457667216780009 -1.3069410108315267 Z M 7.096290115988934 -0.810118007755462 Q 7.035970924377243 -0.8579781699293634 7.0055892860987505 -0.917827614835017 Q 6.975207647820259 -0.9776770597406705 6.985475149376502 -1.0461228661263984 Q 6.995742650932746 -1.1145686725121262 7.056034024060907 -1.1905551866203599 L 7.267986170831042 -1.457683035186419 L 7.2293959366285625 -1.5393640845442582 L 7.239340905391971 -1.5518979425414927 L 7.44849966072082 -1.3859412763021206 L 7.438554691957412 -1.373407418304886 L 7.350239613937893 -1.3924191776765533 L 7.1451246331926015 -1.133908356483593 Q 7.093535107732422 -1.0688889681229394 7.083756940413847 -1.0147351368282844 Q 7.073978773095273 -0.9605813055336294 7.095394111085694 -0.916781952812887 Q 7.116809449076116 -0.8729826000921446 7.159894585941609 -0.8387967699679293 Q 7.194362695434004 -0.8114481058685571 7.235237795247713 -0.8026318586386217 Q 7.276112895061421 -0.7938156114086864 7.319533395600122 -0.8123401932654706 Q 7.362953896138823 -0.8308647751222549 7.404598452835594 -0.883350305485674 L 7.632711173846267 -1.1708456732972388 L 7.5795605944263 -1.261526519716545 L 7.589505563189708 -1.2740603777137796 L 7.784563728271669 -1.1192918013332414 L 7.774618759508261 -1.1067579433360069 L 7.686925242036454 -1.1265530688325014 L 7.474351534718607 -0.8586418541416153 Q 7.414060161590445 -0.7826553400333816 7.349740397421128 -0.7570972114398511 Q 7.285420633251811 -0.7315390828463206 7.221014970426218 -0.7468984642139407 Q 7.1566093076006245 -0.7622578455815607 7.096290115988934 -0.810118007755462 Z M 7.477872690485077 -0.500893973869106 L 7.489414941323484 -0.5119744271803779 L 7.574365363307817 -0.4812429155891186 L 7.969687454523282 -0.8607484415001814 L 7.942448286730986 -0.9468822196478002 L 7.9539905375693944 -0.957962672959072 L 8.30163976021055 -0.5958245529040302 L 8.177560563697668 -0.4767096798078572 L 8.166480110386395 -0.48825193064626493 L 8.20586847806521 -0.6161681395159722 L 8.043124320055904 -0.7856949487050853 L 7.87215472951199 -0.6215657340318702 L 7.987114432616435 -0.5018148815833903 L 8.083030194447755 -0.5231963369201431 L 8.094110647759027 -0.5116540860817353 L 7.934683308053521 -0.35860532471979223 L 7.923602854742249 -0.3701475755581999 L 7.947437945359409 -0.46372582332589307 L 7.832478242254963 -0.583476675774373 L 7.646359447485639 -0.4048043661301135 L 7.827801870457717 -0.21580000865118731 L 7.968732309783577 -0.25960196376074873 L 7.9798127630948485 -0.24805971292234097 L 7.844912706420958 -0.1185569148468506 L 7.477872690485077 -0.500893973869106 Z" fill="#fcf7ee" fill-rule="nonzero"></path></g><g><path d=" M -2.5934119172128773 2.0480101925593064 L -2.5777551272904446 2.0513063917833847 L -2.555094148604756 2.1378308394557433 L -2.018849093761442 2.2507256628804306 L -1.9632261228349686 2.1806822113284645 L -1.9475693329125359 2.183978410552543 L -2.001132570303811 2.438401246792071 L -2.0167893602262437 2.4351050475679927 L -2.0373902143968836 2.3387951061941137 L -2.574613818610349 2.2256942703179217 L -2.624674844326041 2.4634817672648652 L -2.4752659462129847 2.5644272038365226 L -2.4785621454370634 2.5800839937589553 L -2.6958001056108145 2.5343492295248664 L -2.5934119172128773 2.0480101925593064 Z M -2.7287890974843507 2.722615770045669 L -2.71284534201565 2.7239561660894847 L -2.685322930536719 2.7904957548046583 L -2.0929346816927996 3.097201089990786 L -2.0967045455660323 3.142042902246507 L -2.7286609146507295 3.3418031274498405 L -2.7701472728887855 3.4055517123764383 L -2.786091028357486 3.4042113163326224 L -2.7653148896783377 3.157083106567762 L -2.7493711342096367 3.158423502611578 L -2.722862832079636 3.2489624992825408 L -2.532230053017397 3.1897244747796294 L -2.511872788101941 2.947578688598738 L -2.690023129006143 2.8583404902993745 L -2.7309406886071663 2.9391968649169438 L -2.7468844440758673 2.937856468873128 L -2.7287890974843507 2.722615770045669 Z M -2.458992947991268 2.9751054484856128 L -2.4755803490334913 3.1724094224107833 L -2.222151408181107 3.0943660246218694 L -2.458992947991268 2.9751054484856128 Z M -2.7771155067466364 3.9130174002788003 L -2.7611791622763815 3.9115915935158134 L -2.714209267285811 3.987708798959621 L -2.1683894691795835 3.9388749173273268 L -2.1356776418188796 3.855628678068586 L -2.119741297348625 3.8542028713055996 L -2.0965719374500913 4.11316846894724 Q -2.0860566125730644 4.230699009415369 -2.1225139643647775 4.305746404442347 Q -2.1589713161564905 4.380793799469325 -2.251601318389847 4.389081301279186 Q -2.306382502506348 4.393982512026953 -2.352055152106212 4.3604190038889765 Q -2.3977278017060764 4.3268554957509995 -2.42837612345414 4.264839930172451 Q -2.459024445202203 4.202824364593903 -2.466242591939823 4.122146620713239 L -2.4721240448371433 4.056409199773437 L -2.706189104244011 4.077350736604805 L -2.738009802377848 4.170557191157455 L -2.7539461468481026 4.171982997920441 L -2.7771155067466364 3.9130174002788003 Z M -2.1593732846083924 4.028427742049824 L -2.4173428607206424 4.05150798902567 L -2.4097682622922756 4.136169819023899 Q -2.402728341400029 4.214855519845782 -2.3633594955857506 4.256512979912998 Q -2.323990649771473 4.298170439980213 -2.268213444125581 4.29318011630976 Q -2.198491937068216 4.286942211721692 -2.1716699076393406 4.238860731531118 Q -2.1448478782104656 4.190779251340545 -2.152422476638832 4.106117421342316 L -2.1593732846083924 4.028427742049824 Z M -2.6979861813794423 4.650287611999604 L -2.682328639355834 4.646994987244346 L -2.62672166052052 4.7170511354742395 L -2.0904508462119384 4.604278737606627 L -2.067770114929212 4.51775946560044 L -2.0521125729056036 4.514466840845181 L -1.9990189987270561 4.766944705975863 Q -1.9774111487706705 4.8696973255057925 -2.0075298537915334 4.937854229835921 Q -2.037648558812396 5.006011134166049 -2.112021883424535 5.021651101753528 Q -2.1668232805071637 5.033175288396934 -2.2181908030540636 5.005146238691427 Q -2.2695583256009635 4.977117188985921 -2.3050307522337317 4.920198765353648 L -2.5370020295487508 5.163135642959413 L -2.558649421986427 5.235131409506129 L -2.5743069640100353 5.238424034261388 L -2.603940586807364 5.097506156048914 L -2.347348959892796 4.845304377709952 L -2.3664873412827374 4.754294914697729 L -2.607222049895714 4.804919020309833 L -2.6319103227909344 4.886751099480847 L -2.6475678648145426 4.890043724236105 L -2.6979861813794423 4.650287611999604 Z M -2.057574947518894 4.755755386913128 L -2.0709512355871325 4.69214662244222 L -2.312664540576584 4.7429765171015275 L -2.2980535182251236 4.812456859831289 Q -2.285088808251292 4.874108431549246 -2.241808391427459 4.907414669997249 Q -2.1985279746036257 4.940720908445253 -2.1447051738974725 4.929402510849051 Q -2.089903776814844 4.917878324205645 -2.0665367455147403 4.87106772873603 Q -2.0431697142146366 4.824257133266414 -2.057574947518894 4.755755386913128 Z M -2.423834972497297 5.728846423180256 Q -2.4478361426497437 5.660964585909059 -2.443962308535959 5.595424572106353 Q -2.440088474422174 5.529884558303648 -2.412191655825238 5.4722910038711445 Q -2.3842948372283024 5.414697449438642 -2.3341747725477044 5.37045969275487 Q -2.284054707867106 5.3262219360710965 -2.2142872640050424 5.301554066747749 Q -2.1445198201429783 5.2768861974244015 -2.077732276189848 5.279788605512294 Q -2.0109447322367173 5.282691013600186 -1.9530464509492234 5.309949755756679 Q -1.8951481696617294 5.337208497913173 -1.8509390357084161 5.385747682857896 Q -1.806729901755103 5.434286867802619 -1.7827287316026563 5.502168705073816 Q -1.7587275614502098 5.5700505423450135 -1.7624347207712692 5.636061957795436 Q -1.766141880092329 5.702073373245859 -1.7940386986892647 5.759666927678361 Q -1.8219355172862004 5.817260482110864 -1.8720555819667986 5.861498238794637 Q -1.9221756466473967 5.905735995478409 -1.9919430905094606 5.930403864801757 Q -2.0617105343715245 5.955071734125105 -2.1284980783246548 5.952169326037213 Q -2.1952856222777855 5.949266917949321 -2.2531839035652794 5.9220081757928265 Q -2.3110821848527734 5.894749433636333 -2.355457993598812 5.845738847043894 Q -2.3998338023448507 5.796728260451454 -2.423834972497297 5.728846423180256 Z M -2.3696944664311688 5.731977813111823 Q -2.348360092962327 5.792317224019554 -2.3020229326141055 5.8273759971136485 Q -2.255685772265884 5.862434770207742 -2.19183606753086 5.8690275848760205 Q -2.127986362795836 5.875620399544299 -2.0535049024566057 5.8492857822936974 Q -1.9620529827995759 5.816950872504984 -1.905033629785984 5.76072771551508 Q -1.8480142767723922 5.704504558525176 -1.8294697461184724 5.636959385619736 Q -1.810925215464553 5.569414212714296 -1.8345930360315488 5.502475178738532 Q -1.8559274095003904 5.442135767830801 -1.9021265177863462 5.405967516648548 Q -1.948325626072302 5.369799265466296 -2.0123420056000514 5.3627350491503005 Q -2.0763583851278007 5.355670832834306 -2.150839845467031 5.3820054500849075 Q -2.2422917651240604 5.41434035987362 -2.2996158449926436 5.471201593303966 Q -2.356939924861227 5.5280628267343115 -2.3753177807224213 5.596079401287469 Q -2.3936956365836153 5.664095975840626 -2.3696944664311688 5.731977813111823 Z M -2.2032838682332034 6.2805173209879515 L -2.189233899792224 6.2728623626727495 L -2.1163126220084645 6.32309668606208 L -1.625932193143779 6.07983338223989 L -1.6310745499579808 5.98469897118692 L -1.6170245815170015 5.977044012871718 L -1.5285141259974762 6.139496772970542 L -1.8851571159843092 6.596870556317655 L -1.307955639540713 6.544311488676261 L -1.223751098073489 6.698861141527034 L -1.2378010665144683 6.706516099842236 L -1.3131145187717284 6.6518911613151 L -1.78619254466537 6.929001575079315 L -1.7878270231388087 7.009607582796606 L -1.801876991579788 7.017262541111808 L -1.9119170173608198 6.815294244772729 L -1.8978670489198404 6.807639286457527 L -1.828216068637143 6.853961429603752 L -1.4000857649964669 6.609311796240972 L -2.00003373907115 6.664014889423018 L -2.021563309332656 6.624499353182763 L -1.6545403365387665 6.156914989199604 L -2.087527781564617 6.378018748665575 L -2.0830213531687933 6.467805674791338 L -2.0970713216097727 6.4754606331065405 L -2.2032838682332034 6.2805173209879515 Z M -1.657010123206767 7.221090688705561 L -1.6442205687097449 7.211476777130781 L -1.5641771245932867 7.251389770678942 L -1.1261348830702742 6.922113299242711 L -1.142230554701621 6.834130747820648 L -1.1294410002045987 6.824516836245868 L -0.8356158277003709 7.215397595561111 L -0.9731035385433603 7.318747144990001 L -0.9827174501181408 7.305957590492978 L -0.9264477402109397 7.186096338426435 L -1.0712572833060703 6.993453673815037 L -1.2607025592932126 7.135859739016473 L -1.1585547488111703 7.271748755547335 L -1.0621654611866784 7.261843947056355 L -1.052551549611898 7.274633501553377 L -1.22760857678989 7.406223916233185 L -1.2372224883646705 7.393434361736163 L -1.2025188423946842 7.304796576585642 L -1.3046666528767266 7.16890756005478 L -1.5108982191412106 7.323931884198116 L -1.3492643307902141 7.538956269179302 L -1.210493334617826 7.512205369730443 L -1.2008794230430453 7.524994924227466 L -1.3463606054466735 7.634353168390594 L -1.657010123206767 7.221090688705561 Z M -1.0668124965304364 7.9614927005712 Q -1.1091802174629675 7.916227082018227 -1.1301682398297361 7.876974656397229 Q -1.1511562621965048 7.83772223077623 -1.1657982934251832 7.788421004407119 L -1.0528969348225685 7.669050642818976 L -1.041963329420625 7.680732092768131 L -1.085868768790319 7.788941669025291 Q -1.08317087529061 7.835725441539531 -1.0697931872060789 7.869773752239373 Q -1.0564154991215478 7.903822062939216 -1.0324982373047964 7.929375234702991 Q -0.9921805673851297 7.972450581390496 -0.9466555217983246 7.975724756755272 Q -0.9011304762115193 7.978998932120048 -0.8624356732549463 7.94278136422611 Q -0.8303116858947726 7.912713949370765 -0.8253847519328379 7.881393423804697 Q -0.8204578179709032 7.850072898238629 -0.8311633381685553 7.810099258958503 Q -0.8418688583662073 7.770125619678376 -0.8577841097017274 7.716537330146733 Q -0.8723794006462052 7.665822662818178 -0.8781378774858046 7.626012614532754 Q -0.8838963543254041 7.586202566247329 -0.873245546099394 7.552948840378899 Q -0.862594737873384 7.519695114510467 -0.829010569269566 7.48826099897988 Q -0.8041874881276135 7.46502708750075 -0.76918426234764 7.454864696788118 Q -0.7341810365676665 7.444702306075485 -0.6953581504671682 7.447401104850447 Q -0.65653526436667 7.450099903625409 -0.6209599227428648 7.465426190466961 Q -0.5853845811190597 7.480752477308514 -0.5594172682894438 7.508495920937755 Q -0.5279831527588563 7.542080089541574 -0.5093634864316625 7.578070477506473 Q -0.4907438201044687 7.614060865471372 -0.47732826869843126 7.657661587718509 L -0.5873092648137574 7.774298547956165 L -0.598242870215701 7.762617098007011 L -0.5530174704549647 7.657281143952939 Q -0.5579523761043408 7.613960863411006 -0.5673234427315443 7.587119978360984 Q -0.576694509358748 7.560279093310961 -0.5999284208378779 7.535456012169009 Q -0.6299958356932225 7.503332024808835 -0.6713740389700983 7.503024952215548 Q -0.7127522422469741 7.502717879622262 -0.7448762296071478 7.532785294477606 Q -0.7821108513200765 7.567636161696301 -0.7817345735757417 7.609744455594999 Q -0.7813582958314069 7.651852749493697 -0.7596200734466982 7.721905941337845 Q -0.7398384215064526 7.786941979397638 -0.7318050691956798 7.832840947258049 Q -0.7237717168849068 7.87873991511846 -0.7348810509902293 7.915162198074588 Q -0.7459903850955518 7.951584481030718 -0.7832250068084805 7.986435348249413 Q -0.8175392660341206 8.018552814117621 -0.8571244898612356 8.028209938666741 Q -0.8967097136883506 8.03786706321586 -0.935757424247158 8.031269616731379 Q -0.9748051348059654 8.024672170246896 -1.009191859928636 8.005493975980023 Q -1.0435785850513066 7.986315781713152 -1.0668124965304364 7.9614927005712 Z M -0.6221670652591414 8.392802874816269 Q -0.6687202759245179 8.351854143740141 -0.6934118509444486 8.314819347628442 Q -0.7181034259643793 8.277784551516742 -0.7374522465427077 8.23013349547149 L -0.6366448305776866 8.100388110634668 L -0.6246310987930734 8.110955525105927 L -0.6578481660747859 8.22290920499722 Q -0.6506311716930167 8.269211634653702 -0.6340182476108382 8.301803976598396 Q -0.6174053235286598 8.334396318543089 -0.5911252852498183 8.357512537698968 Q -0.5468246492940569 8.396479878561735 -0.5011965328319588 8.395328797278244 Q -0.45556841636986045 8.394177715994756 -0.4205638559338152 8.354382229458224 Q -0.39150346613785303 8.321344467050537 -0.3896336166390083 8.289693974750232 Q -0.3877637671401636 8.258043482449928 -0.4022910563869657 8.219294832574871 Q -0.41681834563376785 8.180546182699814 -0.43784967234934213 8.128751556563671 Q -0.4572888877597551 8.079689178877429 -0.46687655126308525 8.040624147090075 Q -0.4764642147664153 8.001559115302722 -0.4690846709517295 7.96743006121259 Q -0.4617051271370437 7.933301007122458 -0.43132381053217417 7.898761528241695 Q -0.4088680547807489 7.873232348199392 -0.37501383323312176 7.859727101685382 Q -0.3411596116854946 7.846221855171372 -0.3022578717261295 7.845147318930037 Q -0.26335613176676453 7.844072782688701 -0.22646348160062169 7.8558809308804625 Q -0.18957083143447906 7.867689079072225 -0.1610382184460225 7.892786688441465 Q -0.12649873956525948 7.923168005046334 -0.10448036578925513 7.957185518421949 Q -0.08246199201325077 7.991203031797564 -0.06488607240425304 8.033299196110931 L -0.16305163475145945 8.160041148001602 L -0.17506536653607263 8.149473733530343 L -0.1402561879491988 8.040252302088948 Q -0.14936417771224453 7.997613768783073 -0.16129116271102362 7.971806850547087 Q -0.17321814770980293 7.9459999323111 -0.19874732775210602 7.923544176559675 Q -0.23178509015979243 7.894483786763713 -0.2729984520347454 7.898186326832932 Q -0.31421181390969827 7.901888866902152 -0.3432722037056604 7.934926629309839 Q -0.37695583733279836 7.973220399373293 -0.37250243902704017 8.0150942246527 Q -0.368049040721282 8.056968049932106 -0.33962722605227025 8.124586098195277 Q -0.3136387757570428 8.1874001129631 -0.30119712134561694 8.232305070768522 Q -0.2887554669341911 8.277210028573943 -0.2962844527869344 8.314537155064327 Q -0.3038134386396778 8.351864281554713 -0.33749707226681575 8.390158051618167 Q -0.3685388522761389 8.425448388735468 -0.4070024678650113 8.438894588043507 Q -0.44546608345388367 8.452340787351543 -0.48496923961172944 8.449556787788172 Q -0.5244723957695752 8.4467727882248 -0.5605551404932068 8.431015709396247 Q -0.5966378852168384 8.415258630567694 -0.6221670652591414 8.392802874816269 Z M -0.28840357435740316 8.661186990387279 L -0.2791894651302238 8.648106463213285 L -0.190751556192303 8.661475691414195 L 0.12483168483859064 8.213467635704884 L 0.08246432203656673 8.134695771634002 L 0.09167843126374609 8.121615244460006 L 0.4914520430189522 8.403221457715677 L 0.39240036882677387 8.543837124836116 L 0.37931984165277943 8.534623015608938 L 0.3960109725773 8.403266987393783 L 0.19898553201900826 8.264479467159394 L 0.06250153909141376 8.458234775924186 L 0.20148214031510503 8.556134686462968 L 0.29015697934983087 8.517073543082807 L 0.3032375065238253 8.526287652309987 L 0.17711938647680758 8.705327368004037 L 0.16403885930281314 8.696113258776856 L 0.16980863984667594 8.601098998623574 L 0.030828038622984666 8.503199088084793 L -0.11774947266528277 8.714122588765454 L 0.10216689044749938 8.869034800147407 L 0.22599092523746434 8.800912788959145 L 0.23907145241145877 8.810126898186326 L 0.13426095995229337 8.958917894790513 L -0.28840357435740316 8.661186990387279 Z M 0.605728208116237 9.239026204807526 L 0.6125014265215714 9.22453056710394 L 0.70191266105284 9.222157564871646 L 0.9338953914355446 8.725681973523807 L 0.878350248930948 8.65557678723817 L 0.8851234673362826 8.641081149534582 L 1.1505748327832106 8.76511571158227 Q 1.2502323419953678 8.811681588118944 1.3043888559373493 8.880034144747441 Q 1.3585453698793308 8.948386701375938 1.3664512745938628 9.027137870704685 Q 1.3743571793083948 9.10588904003343 1.3379511303797222 9.183803092690207 Q 1.3049316906537167 9.254469326495192 1.2529837647851472 9.303045689038651 Q 1.2010358389165774 9.35162205158211 1.1372292705898146 9.374789309476865 Q 1.0734227022630516 9.397956567371622 1.0035573567114666 9.39511341929992 Q 0.9336920111598817 9.392270271228218 0.8648377320678458 9.360097483802878 L 0.605728208116237 9.239026204807526 Z M 1.1064544153159677 8.80520796473068 L 1.015856679668552 8.762875349697339 L 0.7830272969851807 9.261162895758126 L 0.8872146929797088 9.309845403046467 Q 0.9596928814976413 9.343711495073139 1.0268739828875484 9.338125833425758 Q 1.0940550842774557 9.33254017177838 1.1486279292518957 9.29015733809072 Q 1.2032007742263362 9.247774504403061 1.2387601708543419 9.171672406459233 Q 1.2738962413320143 9.096476285871878 1.2713628503206789 9.026306264281574 Q 1.2688294593093437 8.95613624269127 1.2275049409975185 8.899298454325645 Q 1.1861804226856936 8.842460665960019 1.1064544153159677 8.80520796473068 Z M 1.6061376333043094 9.138124273377308 L 1.6573475941629359 8.890934993858844 L 1.7420937285287388 8.92123503857916 L 1.6249701076078211 9.14485761664849 L 1.6061376333043094 9.138124273377308 Z M 2.0387832168941644 9.792029947114312 Q 1.9660525137417433 9.773720255173856 1.9161581836072914 9.732285899616729 Q 1.8662638534728397 9.690851544059603 1.8475741610906307 9.625821201921042 Q 1.8288844687084216 9.56079085978248 1.8515884867145864 9.470604787873478 L 1.9365454573182999 9.133134325246242 L 1.8687312096572937 9.074814278828466 L 1.8726372772712574 9.059298395489282 L 2.1150729544459947 9.120330701957467 L 2.1111668868320312 9.135846585296651 L 2.0238223011012053 9.15510595557479 L 1.942527268885583 9.47803027757154 Q 1.9222645431381458 9.558518922393553 1.935515521496554 9.612383674992493 Q 1.9487664998549625 9.666248427591432 1.9867933366487383 9.697476775025448 Q 2.0248201734425137 9.728705122459463 2.078156022420956 9.742132229882463 Q 2.12082470160371 9.752873915820864 2.161828508471503 9.743603650325811 Q 2.2028323153392955 9.734333384830759 2.234660824545804 9.70006684135624 Q 2.266489333752313 9.665800297881718 2.283090121111659 9.59985779369019 L 2.373417934684573 9.241052991471578 L 2.285720574397842 9.179789845953744 L 2.2896266420118057 9.16427396261456 L 2.5310925764778447 9.225062139856874 L 2.5271865088638807 9.240578023196056 L 2.441055795067627 9.259111779991368 L 2.3558546952380404 9.597551985327302 Q 2.3331506772318757 9.687738057236304 2.285897865422556 9.736167612015521 Q 2.2386450536132365 9.784597166794736 2.1750794868299113 9.797468402924752 Q 2.111513920046586 9.810339639054767 2.0387832168941644 9.792029947114312 Z M 2.6157712603640593 9.908270121515454 L 2.6173873069011915 9.892351943429071 L 2.70101831367594 9.860636730898772 L 2.7561659017555726 9.317428903700932 L 2.6818120196140254 9.267664456447084 L 2.6834280661511576 9.2517462783607 L 2.829676327319807 9.266593705920602 L 3.1612414330182528 9.78272215958614 L 3.2042686720693947 9.358900668036176 L 3.1086181695551858 9.310994704223939 L 3.110234216092318 9.295076526137557 L 3.357960862561663 9.320226250371674 L 3.3563448160245306 9.336144428458057 L 3.273809698288752 9.366965757766527 L 3.212197924060591 9.973846297309903 L 3.1753871372358287 9.970109189692785 L 2.817121680746416 9.410059314515197 L 2.7705593398952972 9.868701820629123 L 2.866108839500935 9.91760267057176 L 2.8644927929638033 9.933520848658144 L 2.6157712603640593 9.908270121515454 Z M 4.125674084127129 9.958293435123647 L 3.8238369838239556 9.367197533530197 L 3.7521826684994593 9.33801433467576 L 3.7508615584014944 9.322068969577742 L 4.000007888058008 9.30142662429704 L 4.001328998155973 9.317371989395056 L 3.9186777278556764 9.361346612960782 L 3.9190905747612907 9.366329539553913 L 4.143268805898612 9.80732514121468 L 4.148251732491742 9.806912294309065 L 4.295469547677448 9.331131972214985 L 4.295139270152957 9.32714563094048 L 4.210611915067445 9.300032419359265 L 4.20929080496948 9.28408705426125 L 4.418573721880952 9.266747484225458 L 4.419894831978916 9.282692849323475 L 4.365566550250915 9.317296863606256 L 4.160554570279041 9.955403506784348 L 4.125674084127129 9.958293435123647 Z M 4.988788047207653 9.831875849005133 Q 4.918468671711031 9.847341469903274 4.853903455732583 9.835432108641797 Q 4.7893382397541355 9.82352274738032 4.735615216862282 9.788750821759765 Q 4.681892193970429 9.753978896139209 4.644158126149591 9.698796107828972 Q 4.606424058328754 9.643613319518735 4.590528836850109 9.571340628036095 Q 4.574633615371464 9.499067936553455 4.585732447201059 9.43314513373062 Q 4.5968312790306545 9.367222330907785 4.63100747550958 9.313118379164553 Q 4.665183671988504 9.259014427421322 4.718794073164102 9.221114231039358 Q 4.772404474339701 9.183214034657395 4.8427238498363225 9.167748413759254 Q 4.913043225332945 9.152282792861113 4.978096770307897 9.164084753977464 Q 5.04315031528285 9.175886715093815 5.096873338174703 9.210658640714371 Q 5.150596361066556 9.245430566334925 5.188330428887394 9.300613354645163 Q 5.226064496708231 9.3557961429554 5.241959718186876 9.42806883443804 Q 5.2578549396655205 9.500341525920678 5.2467561078359255 9.566264328743515 Q 5.2356572760063305 9.632187131566349 5.201481079527406 9.68629108330958 Q 5.167304883048481 9.740395035052812 5.113206152876378 9.778402631579901 Q 5.059107422704276 9.816410228106992 4.988788047207653 9.831875849005133 Z M 4.998557850548237 9.77853214325941 Q 5.061063962100791 9.764784924683283 5.101558265473647 9.723114054829788 Q 5.142052568846504 9.68144318497629 5.156452246819628 9.618890013399861 Q 5.1708519247927525 9.55633684182343 5.153882701862848 9.479180860375747 Q 5.133047073708408 9.384445035053908 5.0842676809028475 9.320940540429348 Q 5.035488288097286 9.257436045804788 4.970738441889211 9.23072074277393 Q 4.905988595681135 9.20400543974307 4.836645878177522 9.21925626035096 Q 4.774139766624969 9.233003478927087 4.7325614051139775 9.27440082007433 Q 4.690983043602986 9.315798161221574 4.676095036633357 9.37845873294313 Q 4.6612070296637285 9.441119304664687 4.678176252593634 9.51827528611237 Q 4.699011880748073 9.613011111434208 4.748387002695265 9.676896534910147 Q 4.797762124642455 9.740781958386085 4.863000299847035 9.767389861271818 Q 4.928238475051614 9.79399776415755 4.998557850548237 9.77853214325941 Z M 5.662407278910053 9.632371610363437 L 5.6570123443853175 9.617308586713657 L 5.728254516103487 9.549304520887569 L 5.643284297338897 9.312061898403545 L 5.3321182716360225 9.101660604566558 L 5.263563441513971 9.091161306164445 L 5.258168506989234 9.076098282514664 L 5.485996739692148 8.994499897828033 L 5.491391674216883 9.009562921477814 L 5.434468048087624 9.067127674480814 L 5.435816781718809 9.070893430393259 L 5.686269926895142 9.2393072720788 L 5.756243217684417 8.957192510720732 L 5.754894484053232 8.953426754808287 L 5.674030835970458 8.94414934036539 L 5.668635901445723 8.929086316715612 L 5.8682209648053 8.857603434262861 L 5.873615899330035 8.87266645791264 L 5.824490857188185 8.925313682289254 L 5.72767662196111 9.280773952723793 L 5.812984024133496 9.51895801418593 L 5.911200868475345 9.526269066608739 L 5.916595803000081 9.54133209025852 L 5.662407278910053 9.632371610363437 Z M 6.178048128861585 9.43899077330046 L 6.1708420417516 9.424705385361616 L 6.2131210388426386 9.366417424297808 L 6.1642528921297535 8.701132594892501 L 6.204430545707757 8.680865474895668 L 6.705508618145863 9.114678528320427 L 6.781542376137244 9.116645161409767 L 6.788748463247229 9.130930549348612 L 6.5673249501951245 9.242624899553377 L 6.5601188630851395 9.22833951161453 L 6.623375561640072 9.158349583139568 L 6.473092423467535 9.02695331842472 L 6.256133094146319 9.136395766407615 L 6.273383557138358 9.334898717334195 L 6.363694778926014 9.327423209376821 L 6.370900866035999 9.341708597315666 L 6.178048128861585 9.43899077330046 Z M 6.2518974148678375 9.07693099514723 L 6.42867909061105 8.987755667161169 L 6.229494663423428 8.81270549159445 L 6.2518974148678375 9.07693099514723 Z M 7.2304844342018715 8.851539096143718 Q 7.151360222010273 8.905902310223267 7.065348419803953 8.914039870129088 Q 6.979336617597632 8.922177430034909 6.902840011920485 8.886772355259177 Q 6.826343406243339 8.851367280483444 6.773679042603776 8.774715699922833 Q 6.730075214644138 8.711251488060821 6.715932578395162 8.64210500702289 Q 6.701789942146186 8.572958525984957 6.715123615277706 8.504953282357558 Q 6.728457288409228 8.436948038730161 6.765917109243754 8.378452211331574 Q 6.803376930078279 8.319956383932988 6.864368510309304 8.278051406413336 Q 6.907227458579753 8.24860466545358 6.941120949575237 8.232597439955729 Q 6.97501444057072 8.216590214457877 7.005145664616881 8.209234309518301 Q 7.0352768886630415 8.201878404578725 7.067106963149188 8.196995131270135 L 7.164664790066725 8.33015845357447 L 7.151477421368125 8.339218989254395 L 7.03447998627059 8.28371583456389 Q 6.983440922516902 8.28359763495748 6.95289759319891 8.291236681637056 Q 6.922354263880918 8.298875728316629 6.891034263221743 8.32039450055645 Q 6.827570051359732 8.36399832851609 6.797087915319826 8.4255863905285 Q 6.766605779279919 8.487174452540911 6.77171020437512 8.554644407665007 Q 6.77681462947032 8.622114362789103 6.818719606989973 8.683105943020127 Q 6.875347954989503 8.765526997386376 6.945071483432854 8.80255238842292 Q 7.014795011876206 8.839577779459466 7.086848554343106 8.83496399381527 Q 7.158902096810007 8.830350208171073 7.2215420981283565 8.78731266369143 Q 7.248741046069218 8.768625308851586 7.271614333730943 8.748056820537078 Q 7.294487621392667 8.727488332222572 7.31432488409359 8.698086240315115 L 7.220888109894366 8.562091500610805 L 7.124882032308593 8.579522308583886 L 7.1158214966286675 8.566334939885287 L 7.320225711456964 8.425896636846453 L 7.3292862471368885 8.439084005545052 L 7.296765909263975 8.513598619042215 L 7.385672415623238 8.642999674397226 Q 7.369277502854585 8.700368715136184 7.326667811197259 8.757549692540104 Q 7.284058119539933 8.814730669944023 7.2304844342018715 8.851539096143718 Z M 7.659903217295723 8.520965935315433 L 7.6492242105491695 8.50905128824105 L 7.682099929054696 8.42586963682233 L 7.316343947985255 8.017792974524752 L 7.2300731957469635 8.041401390571565 L 7.21939418900041 8.029486743497182 L 7.583535590211204 7.703109599805655 L 7.698334912736649 7.83119205585526 L 7.686420265662267 7.841871062601813 L 7.562160771414869 7.796126357013289 L 7.382696399856993 7.9569788961332435 L 7.54087918729031 8.133464605922525 L 7.667472312455616 8.020000159240398 L 7.649308237065316 7.924821031459064 L 7.661222884139698 7.914142024712511 L 7.807391788983142 8.077223756543113 L 7.79547714190876 8.087902763289666 L 7.7041813981468925 8.060956758558586 L 7.577588272981586 8.174421205240712 L 7.749787256769753 8.366544889315119 L 7.950102260707798 8.187004088388695 L 7.911506902070262 8.051050426092896 L 7.923421549144644 8.040371419346345 L 8.044895250886684 8.175900529817437 L 7.659903217295723 8.520965935315433 Z M 8.542485509479938 7.641050851771202 Q 8.50321203992418 7.689025788863948 8.467075411416694 7.7150141339461555 Q 8.430938782909207 7.741002479028363 8.384003248188272 7.762027596874877 L 8.250767371111369 7.665880828548799 L 8.260902460028984 7.6535001996216385 L 8.373962836481617 7.682729487611409 Q 8.419980465784676 7.673876364245827 8.451963685391899 7.656119009049849 Q 8.483946904999122 7.638361653853871 8.506117412006406 7.611279028075708 Q 8.54349055239011 7.565625458906804 8.540723426264993 7.520066782312683 Q 8.537956300139877 7.474508105718563 8.496945466818659 7.440935623678963 Q 8.462898737268967 7.413064129155522 8.431201864951936 7.412316944226725 Q 8.399504992634904 7.411569759297928 8.36129542953662 7.427460929419669 Q 8.323085866438333 7.443352099541411 8.272068980872099 7.466205488505013 Q 8.223726213785865 7.487370952602124 8.185025438810491 7.498336809445321 Q 8.146324663835117 7.509302666288517 8.111955557967752 7.503137071274422 Q 8.077586452100386 7.496971476260326 8.0419921439348 7.467833095622183 Q 8.015683307464585 7.446296031672251 8.00098696540258 7.412941608727211 Q 7.986290623340577 7.379587185782172 7.98383833381447 7.340747949485868 Q 7.981386044288362 7.3019087131895635 7.991879538551133 7.264620825368487 Q 8.002373032813905 7.227332937547411 8.02644386899324 7.1979289438454055 Q 8.055582249631383 7.162334635679819 8.088798211255494 7.139124726300727 Q 8.122014172879602 7.1159148169216335 8.163461124389942 7.096858316442804 L 8.293601844235054 7.190471312539478 L 8.283466755317438 7.202851941466639 L 8.173080497344806 7.171934728610377 Q 8.130791468330887 7.182547834897415 8.105423371798366 7.195381761744515 Q 8.080055275265845 7.208215688591615 8.058518211315914 7.23452452506183 Q 8.030646716792473 7.268571254611521 8.035807268896397 7.309627541608553 Q 8.04096782100032 7.350683828605586 8.075014550550012 7.378555323129027 Q 8.114477805255335 7.410860919053925 8.156167535309718 7.404926577642053 Q 8.197857265364101 7.398992236230182 8.264425765003583 7.368192319740876 Q 8.326279470740417 7.3399944636766055 8.370715377329764 7.3259694786291005 Q 8.415151283919114 7.3119444935815965 8.45272174917105 7.318146117623174 Q 8.490292214422984 7.324347741664752 8.529755469128308 7.35665333758965 Q 8.566123566601842 7.386425161285144 8.58092422588696 7.424388175980052 Q 8.595724885172078 7.462351190674961 8.594342372256264 7.501928187251731 Q 8.59295985934045 7.5415051838285 8.57849121638516 7.578123599564743 Q 8.56402257342987 7.614742015300986 8.542485509479938 7.641050851771202 Z M 8.77594054107484 7.332527804354851 L 8.762535588445704 7.323792402531774 L 8.769829480940416 7.252155825755133 L 8.393505233887888 6.701363613500505 L 8.41807355151529 6.663662184231059 L 9.069233377832534 6.787209262668778 L 9.135974016382225 6.7507306776361915 L 9.14937896901136 6.759466079459267 L 9.013980240753675 6.967242845210882 L 9.000575288124539 6.9585074433878065 L 9.020134473814544 6.866217475053518 L 8.824192512994482 6.828050106923273 L 8.691523597806508 7.031637824978283 L 8.80611712914917 7.1946388144673605 L 8.880463513057236 7.142825542038432 L 8.893868465686374 7.151560943861509 L 8.77594054107484 7.332527804354851 Z M 8.658001213264525 6.982340261807074 L 8.766101810825097 6.816453973021511 L 8.505950365371838 6.765090314384491 L 8.658001213264525 6.982340261807074 Z M 9.338775940574095 6.386214660876566 L 8.676384864316693 6.344524588982149 L 8.614748143738929 6.391289048525894 L 8.600357143595286 6.3842962583198535 L 8.709619490564661 6.159436881075443 L 8.724010490708302 6.166429671281483 L 8.71970343118301 6.259952124405028 L 8.724200618727899 6.262137371344416 L 9.217871233372751 6.29411117681349 L 9.220056480312138 6.289613989268601 L 8.885807537309683 5.920401795399357 L 8.882209787273771 5.918653597847847 L 8.815790862162578 5.977547794396179 L 8.801399862018934 5.970555004190139 L 8.89318023347321 5.781673127304834 L 8.907571233616851 5.7886659175108734 L 8.909642543777164 5.853045337158925 L 9.354072669149808 6.354734348062348 L 9.338775940574095 6.386214660876566 Z M 9.670056857360585 5.579244975251563 Q 9.647511176063812 5.647624008988991 9.604348966636602 5.697096462711863 Q 9.561186757209391 5.746568916434733 9.50388395591206 5.775058194478915 Q 9.446581154614732 5.803547472523098 9.379870847335011 5.807875855898595 Q 9.313160540055291 5.8122042392740925 9.242882088714044 5.789032289052409 Q 9.172603637372799 5.765860338830726 9.121550053215838 5.722703282110787 Q 9.070496469058876 5.679546225390848 9.041375769382512 5.622561711263245 Q 9.012255069706148 5.565577197135642 9.006982130236013 5.500134885827557 Q 9.00170919076588 5.434692574519472 9.02425487206265 5.366313540782044 Q 9.046800553359423 5.297934507044616 9.090119330017862 5.24798719892079 Q 9.1334381066763 5.198039890796965 9.19074090797363 5.169550612752783 Q 9.248043709270961 5.1410613347086 9.314754016550681 5.136732951333103 Q 9.381464323830402 5.132404567957606 9.451742775171647 5.155576518179289 Q 9.522021226512893 5.178748468400972 9.573074810669855 5.221905525120911 Q 9.624128394826815 5.26506258184085 9.65324909450318 5.322047095968453 Q 9.682369794179545 5.379031610096057 9.68748616641845 5.444948775805096 Q 9.692602538657358 5.510865941514135 9.670056857360585 5.579244975251563 Z M 9.629147240976707 5.543644367288721 Q 9.649187846573838 5.482863003966562 9.633984186341836 5.426781824275424 Q 9.618780526109832 5.370700644584285 9.572308613316643 5.326421853709395 Q 9.525836700523454 5.282143062834504 9.450809705172665 5.257405440300546 Q 9.35868795138752 5.227031397442394 9.27918749152566 5.23661924817929 Q 9.199687031663801 5.246207098916186 9.14369344799628 5.288289976527731 Q 9.087699864328759 5.330372854139276 9.065467317494441 5.397802179074795 Q 9.04542671189731 5.458583542396954 9.059842383265902 5.515457863658774 Q 9.074258054634496 5.572332184920594 9.120573400196458 5.617085830196439 Q 9.166888745758419 5.661839475472283 9.241915741109208 5.686577098006242 Q 9.334037494894355 5.716951140864394 9.414169376388395 5.707045002957771 Q 9.494301257882436 5.697138865051148 9.550451408781186 5.654581133038649 Q 9.606601559679934 5.61202340102615 9.629147240976707 5.543644367288721 Z M 9.841854065682496 4.898032431497319 L 9.826145196240395 4.894994106160716 L 9.803963602653534 4.799035902207395 L 9.556548908940451 4.751182278155904 L 9.216905429835311 4.9116045556031365 L 9.172922271265183 4.9652280743444015 L 9.157213401823082 4.962189749007799 L 9.203168072539196 4.724593098696029 L 9.218876941981296 4.727631424032632 L 9.23937773453764 4.805949477536033 L 9.243304951898166 4.806709058870184 L 9.515874671253309 4.6771106480363365 L 9.308851169641104 4.473085478559086 L 9.304923952280578 4.472325897224936 L 9.255716636687602 4.537161382047163 L 9.240007767245501 4.534123056710561 L 9.280265577955486 4.325980536602729 L 9.295974447397587 4.329018861939332 L 9.316220689275509 4.3981208857144765 L 9.57265768461871 4.662629992210551 L 9.821054182671922 4.710673511595579 L 9.877416936295564 4.629906934325271 L 9.893125805737665 4.632945259661873 L 9.841854065682496 4.898032431497319 Z M 9.939397799272054 4.3539398944413055 L 9.923431716663623 4.352898642242876 L 9.894666680077451 4.286886729149888 L 9.296632534827703 3.991341197775444 L 9.299561056635786 3.9464365904392293 L 9.927661318696591 3.7348637642087614 L 9.967945248146485 3.67034861073242 L 9.983911330754918 3.67138986293085 L 9.96777192167926 3.9188641433615414 L 9.951805839070827 3.917822891163112 L 9.923604800619273 3.8277967758950746 L 9.734116100779143 3.8905983095777565 L 9.718302083015494 4.1330831891933135 L 9.89809412175775 4.218965799801651 L 9.937488621342421 4.1373565270290475 L 9.953454703950854 4.1383977792274775 L 9.939397799272054 4.3539398944413055 Z M 9.664915474084253 4.106552641011591 L 9.677800970039819 3.9089723687322486 L 9.425879701957397 3.991753252321066 L 9.664915474084253 4.106552641011591 Z M 9.979254446772492 3.462059724351771 L 9.96328603512242 3.4630646270206378 L 9.918340492652913 3.3857348254424524 L 9.371422393638 3.420152741851134 L 9.336525877857158 3.5025070567736525 L 9.320557466207086 3.5035119594425193 L 9.304353410671613 3.246021321585134 Q 9.297758736907175 3.1412286201315465 9.337373067864153 3.0781159844487367 Q 9.376987398821129 3.015003348765927 9.452837354158964 3.0102300610888104 Q 9.50872679493421 3.006712901747777 9.555525583674527 3.041842993868909 Q 9.602324372414843 3.076973085990041 9.629235768420482 3.1384041592756975 L 9.893755675919536 2.9313818934763582 L 9.92553937862312 2.8632511644148675 L 9.941507790273189 2.862246261746001 L 9.950551914292989 3.005961966596635 L 9.660334563529789 3.2186093021454 L 9.666175560292576 3.3114256948614345 L 9.911689889412408 3.29597531632761 L 9.947898463005401 3.2185483236289345 L 9.963866874655471 3.2175434209600677 L 9.979254446772492 3.462059724351771 Z M 9.360689373305226 3.265521560407881 L 9.364771790397496 3.330393232736292 L 9.611284145245458 3.3148800477856635 L 9.606824889652362 3.2440202210884763 Q 9.6028680853937 3.181144600216324 9.564831705747734 3.1419561602955017 Q 9.526795326101768 3.102767720374679 9.47190391105465 3.106222073298908 Q 9.416014470279404 3.1097392326399413 9.386153697204168 3.152699496039382 Q 9.356292924128933 3.195659759438823 9.360689373305226 3.265521560407881 Z M 9.91857974876161 2.690670553951428 L 9.90287693755057 2.6937400360039 L 9.848272499260613 2.6228996850798794 L 9.310451215282502 2.728029445377023 L 9.286541597517258 2.8142172065634004 L 9.27083878630622 2.8172866886158716 L 9.214628896220338 2.5297289583137057 Q 9.193526207109597 2.421772131237807 9.216838084430709 2.3377390640810893 Q 9.24014996175182 2.2537059969243716 9.299117282953421 2.2009129573234243 Q 9.358084604155023 2.1481199177224766 9.442487214414362 2.1316214516904433 Q 9.51903841906818 2.116657726684645 9.588896344963125 2.1300038942864856 Q 9.658754270858068 2.143350061888326 9.715071150648603 2.181250049364031 Q 9.771388030439136 2.219150036839736 9.81026037388179 2.277272243570695 Q 9.849132717324446 2.3353944503016537 9.863712757073685 2.4099828035540924 L 9.91857974876161 2.690670553951428 Z M 9.273019690208715 2.5417504048742052 L 9.29220395303666 2.6398929749432036 L 9.831988088416152 2.534379529389501 L 9.809926186164015 2.4215155738101526 Q 9.794578775901657 2.3430015177549537 9.750478221174195 2.2920148423119517 Q 9.706377666446732 2.2410281668689493 9.639976943063495 2.2219115789364015 Q 9.573576219680257 2.202794991003854 9.491136460822299 2.2189097717793285 Q 9.40967812766503 2.2348327099265237 9.35447798547685 2.278228496616069 Q 9.299277843288667 2.321624283305615 9.277707691104395 2.388504613259551 Q 9.256137538920122 2.4553849432134864 9.273019690208715 2.5417504048742052 Z" fill="#dabb95" fill-rule="nonzero"></path></g><g clip-path="url(&quot;#SvgjsClipPath1033&quot;)"><path d=" M 5.683682578457037 1.5116330162185625 L 0.30234030860674993 1.5116330162185625 L 0.30234030860674993 6.892975286068849 L 5.683682578457037 6.892975286068849 Z M 0 1.2092927076118123 L 0 7.1953155946756 L 5.986022887063787 7.1953155946756 L 5.986022887063787 1.2092927076118123 Z" fill="#dabb95" transform="matrix(1,0,0,1,0,0)" fill-rule="evenodd"></path><path d=" M 6.409244497661087 0.7860710970145124 L 0.7860710970145124 0.7860710970145124 L 0.7860710970145124 6.409244497661087 L 6.409244497661087 6.409244497661087 Z M 0.6046806172134999 0.6046806172134999 L 0.6046806172134999 6.590634977462099 L 6.590634977462099 6.590634977462099 L 6.590634977462099 0.6046806172134999 Z" fill="#dabb95" transform="matrix(1,0,0,1,0,0)" fill-rule="evenodd"></path><path d=" M 7.074365765869862 0.12094982880573744 L 1.3302425364175499 0.12094982880573744 L 1.3302425364175499 5.865073058258049 L 7.07436576586986 5.865073058258049 Z M 1.2092927076118123 0 L 1.2092927076118123 5.986022887063787 L 7.1953155946756 5.986022887063787 L 7.1953155946756 0 Z" fill="#dabb95" transform="matrix(1,0,0,1,0,0)" fill-rule="evenodd"></path><path d=" M 1.8139733248253123 4.1116089112431995 L 3.023266032437125 4.1116089112431995 L 3.023266032437125 5.320901618855012 L 1.8139733248253123 5.320901618855012 Z" fill="#bc7415" transform="matrix(1,0,0,1,0,0)" fill-rule="nonzero"></path></g><g transform="matrix(0.6211055608700925,-0.7837269181648975,0.7837269181648975,0.6211055608700925,-1.3534165320593101,-1.0458764325806924)"><g clip-path="url(&quot;#SvgjsClipPath1034&quot;)"><path d=" M -1.7627457549276888 1.0970659894221875 L -1.7540440406419744 1.0970659894221875 L -1.7268511834991174 0.9382597037079019 L -1.5756588977848316 0.9948208465650448 L -1.5713080406419744 0.9872068465650448 L -1.695307469213403 0.8838739894221876 L -1.5713080406419744 0.7816288465650449 L -1.5756588977848316 0.7740148465650449 L -1.7268511834991174 0.8294882751364734 L -1.7540440406419744 0.6706819894221877 L -1.7627457549276888 0.6706819894221877 L -1.7899386120705458 0.8294882751364734 L -1.941130217963403 0.7740148465650449 L -1.9454810751062601 0.7816288465650449 L -1.8214823263562603 0.8838739894221876 L -1.9454810751062601 0.9872068465650448 L -1.941130217963403 0.9948208465650448 L -1.7899386120705458 0.9382597037079019 L -1.7627457549276888 1.0970659894221875 Z" fill="#f7f7f2" transform="matrix(1,0,0,1,0,0)" fill-rule="nonzero"></path></g></g><g transform="matrix(-0.6211055608700925,-0.7837269181648975,-0.7837269181648975,0.6211055608700925,15.202066278547077,7.349471152162042)"><g clip-path="url(&quot;#SvgjsClipPath1035&quot;)"><path d=" M 8.949336974603288 1.097065989422187 L 8.958038688889003 1.097065989422187 L 8.985231546031859 0.9382597037079015 L 9.136423831746145 0.9948208465650442 L 9.140774688889001 0.9872068465650443 L 9.016775260317573 0.8838739894221872 L 9.140774688889001 0.7816288465650443 L 9.136423831746145 0.7740148465650443 L 8.985231546031859 0.8294882751364729 L 8.958038688889003 0.6706819894221872 L 8.949336974603288 0.6706819894221872 L 8.92214411746043 0.8294882751364729 L 8.770952511567573 0.7740148465650443 L 8.766601654424717 0.7816288465650443 L 8.890600403174716 0.8838739894221872 L 8.766601654424717 0.9872068465650443 L 8.770952511567573 0.9948208465650442 L 8.92214411746043 0.9382597037079015 L 8.949336974603288 1.097065989422187 Z" fill="#f7f7f2" transform="matrix(1,0,0,1,0,0)" fill-rule="nonzero"></path></g></g></g><defs><clipPath id="SvgjsClipPath1033"><path d=" M 0 0 h 7.195315594675599 v 7.195315594675599 h -7.195315594675599 Z"></path></clipPath><clipPath id="SvgjsClipPath1034"><path d=" M -2.0756335674276887 0.5595538465650449 h 0.6344999999999998 v 0.6344999999999998 h -0.6344999999999998 Z"></path></clipPath><clipPath id="SvgjsClipPath1035"><path d=" M 8.636449162103288 0.5595538465650444 h 0.6344999999999998 v 0.6344999999999998 h -0.6344999999999998 Z"></path></clipPath></defs></svg>